# xmcd
#
# Track frame offsets:
#	150
#	20455
#	39076
#	53322
#	82757
#	96981
#	110609
#	123549
#	139458
#	153923
#	171523
#	193234
#	213176
#	229589
#	242091
#	261798
#	276839
#	293681
#	306927
#	323837
#
# Disc length: 4536 seconds
#
# Revision: 0
# Processed by: cddbd v1.5.2PL0 Copyright (c) Steve Scherf et al.
# Submitted via: EasyCDDAExtractor 16.0.6.1
#
DISCID=1511b614
DTITLE=Συλλογικός δίσκος - Σαράντα χρόνια-πρώτη επιλογή-Μ. Θεοδωράκης 3
DYEAR=2003
DGENRE=Έντεχνη λαϊκή
TTITLE0=Νταλάρας Γιώργος - Κόκκινο τριαντάφυλλο [1976, Μ. Θεοδωράκη για Α. Παν
TTITLE0=αγούλη]
TTITLE1=Αλεξίου Χάρις - Το μπλόκο της Καισαριανής [1977, Νότη Περγιάλη]
TTITLE2=Παπακωνσταντίνου Βασίλης-χορωδία - Αρνιέμαι [1975, Ιάκωβου Καμπανέλλη]
TTITLE3=Καρέζη Τζένη-Παπακωνσταντίνου Βασίλης - Ο αδελφός τον αδελφό [1975, Ιά
TTITLE3=κωβου Καμπανέλλη]
TTITLE4=Μπιθικώτσης Γρηγόρης - Όσους δεν πήρε η μοναξιά [1978, Μάνου Ελευθερίο
TTITLE4=υ]
TTITLE5=Μπιθικώτσης Γρηγόρης - Μέσα σε κήπο [1976, Μάνου Ελευθερίου]
TTITLE6=Μπιθικώτσης Γρηγόρης - Μοιρολόϊ της βροχής [1977, Τα λυρικά Τάσου Λειβ
TTITLE6=αδίτη]
TTITLE7=Φαραντούρη Μαρία - Επιβάτης [1981, Κώστα Τριπολίτη]
TTITLE8=Φαραντούρη Μαρία - Σα να μην έζησα ποτέ [1981, Κώστα Τριπολίτη]
TTITLE9=Νταλάρας Γιώργος - Αγάπη [1981, Κώστα Τριπολίτη]
TTITLE10=Νταλάρας Γιώργος - Ξημερώνει [1981, Κώστα Τριπολίτη]
TTITLE11=Γαλάνη Δήμητρα - Νύχτα μαγικιά 1982, Γιάννη Θεοδωράκη]
TTITLE12=Παπακωνσταντίνου Βασίλης - Δημόσιοι υπάλληλοι [1984, Κώστα Καρυωτάκη]
TTITLE13=Παπακωνσταντίνου Βασίλης - Κι αν έσβησε σαν ίσκιος [1984, Κώστα Καρυω
TTITLE13=τάκη]
TTITLE14=Μωραΐτης Θανάσης - Μιά φυλακή [1985, Μίκη Θεοδωράκη]
TTITLE15=Μωραΐτης Θανάσης - Η αρκούδα [1985, Μίκη Θεοδωράκη]
TTITLE16=Καγιαλόγλου Αλίκη - Σαν καφενείο (Κλειστά παράθυρα) [1985, Αγγελικής 
TTITLE16=Ελευθερίου]
TTITLE17=Φαραντούρη Μαρία - Τα μάγια [1998, Λευτέρη Παπαδόπουλου]
TTITLE18=Φαραντούρη Μαρία - Κάποτε θά 'ρθουν να σού πουν [1998, Λευτ. Παπαδόπο
TTITLE18=υλου]
TTITLE19=Θεοδωράκης Μίκης - Κοίτα με στα μάτια [1997, Μιχάλη Γκανά]
EXTD=
EXTT0=
EXTT1=
EXTT2=
EXTT3=
EXTT4=
EXTT5=
EXTT6=
EXTT7=
EXTT8=
EXTT9=
EXTT10=
EXTT11=
EXTT12=
EXTT13=
EXTT14=
EXTT15=
EXTT16=
EXTT17=
EXTT18=
EXTT19=
PLAYORDER=
